<svg width="19" height="23" viewBox="0 0 19 23" fill="none" xmlns="http://www.w3.org/2000/svg">
<path d="M0.59883 14.018V9.382H18.6868V14.018H0.59883ZM9.64283 22.758C8.75616 22.758 8.00883 22.4667 7.40083 21.884C6.79283 21.276 6.48883 20.5033 6.48883 19.566C6.48883 18.6287 6.79283 17.8813 7.40083 17.324C8.00883 16.7413 8.75616 16.45 9.64283 16.45C10.5295 16.45 11.2768 16.7413 11.8848 17.324C12.4928 17.8813 12.7968 18.6287 12.7968 19.566C12.7968 20.5033 12.4928 21.276 11.8848 21.884C11.2768 22.4667 10.5295 22.758 9.64283 22.758ZM9.64283 6.95C8.75616 6.95 8.00883 6.646 7.40083 6.038C6.79283 5.43 6.48883 4.67 6.48883 3.758C6.48883 2.82067 6.79283 2.07333 7.40083 1.516C8.00883 0.933332 8.75616 0.641999 9.64283 0.641999C10.5295 0.641999 11.2768 0.933332 11.8848 1.516C12.4928 2.07333 12.7968 2.82067 12.7968 3.758C12.7968 4.67 12.4928 5.43 11.8848 6.038C11.2768 6.646 10.5295 6.95 9.64283 6.95Z" fill="#B4676B"/>
<path d="M0.59883 14.018V9.382H18.6868V14.018H0.59883ZM9.64283 22.758C8.75616 22.758 8.00883 22.4667 7.40083 21.884C6.79283 21.276 6.48883 20.5033 6.48883 19.566C6.48883 18.6287 6.79283 17.8813 7.40083 17.324C8.00883 16.7413 8.75616 16.45 9.64283 16.45C10.5295 16.45 11.2768 16.7413 11.8848 17.324C12.4928 17.8813 12.7968 18.6287 12.7968 19.566C12.7968 20.5033 12.4928 21.276 11.8848 21.884C11.2768 22.4667 10.5295 22.758 9.64283 22.758ZM9.64283 6.95C8.75616 6.95 8.00883 6.646 7.40083 6.038C6.79283 5.43 6.48883 4.67 6.48883 3.758C6.48883 2.82067 6.79283 2.07333 7.40083 1.516C8.00883 0.933332 8.75616 0.641999 9.64283 0.641999C10.5295 0.641999 11.2768 0.933332 11.8848 1.516C12.4928 2.07333 12.7968 2.82067 12.7968 3.758C12.7968 4.67 12.4928 5.43 11.8848 6.038C11.2768 6.646 10.5295 6.95 9.64283 6.95Z" fill="black"/>
</svg>
